<svg xmlns="http://www.w3.org/2000/svg" width="360" height="360">
  <path fill="#BA7" fill-opacity="0.1"
    d="M0 85l5-4a49 49 0 0 0 7 3l-1 11 2 1 5-9 9 1 2 10h2l2-10 9-1 5 9 2-1-1-11 7-3 8 7 2-2-4-9a48 48 0 0 0 6-6l9 4 2-2-7-8a49 49 0 0 0 3-7l11 1 1-2-9-5a48 48 0 0 0 1-9l10-2v-2l-10-2-1-9 9-5-1-2-11 1-3-7 7-8-2-2-9 4a48 48 0 0 0-6-6l1-3h3l-2 3a50 50 0 0 1 4 4l10-5 3 5-7 8 3 5 10-1 2 5-9 5 1 6 10 2v6l-10 2a50 50 0 0 1-1 6l9 5-2 5-10-1-3 5 7 8-3 5-10-5a50 50 0 0 1-4 4l5 10-5 3-8-7-5 3 1 10-5 2-5-9-6 1-2 10h-6l-2-10a50 50 0 0 1-6-1l-5 9-5-2 1-10-5-3-5 5v-3zm0-32V27l8 5a23 23 0 0 0 0 16l-8 5zm0-39A40 40 0 0 1 26 0v17a23 23 0 0 0-14 8L0 18v-4zm0 52v-4l12-7a23 23 0 0 0 14 8v17A40 40 0 0 1 0 66zm34 14V63a23 23 0 0 0 14-8l14 8a40 40 0 0 1-28 17zm32-24l-14-8a23 23 0 0 0 0-16l14-8a40 40 0 0 1 4 16 40 40 0 0 1-4 16zm-4-39l-14 8a23 23 0 0 0-14-8V0a40 40 0 0 1 28 17zM0 50l6-3a25 25 0 0 1 0-14l-6-3v20zm1-34l11 7c3-4 7-6 12-7V2A38 38 0 0 0 1 16zm0 48a38 38 0 0 0 23 14V64a25 25 0 0 1-12-7L1 64zm35 14a38 38 0 0 0 24-14l-12-7a25 25 0 0 1-12 7v14zm30-24a38 38 0 0 0 0-28l-12 7a25 25 0 0 1 0 14l12 7h-1zm-6-38A38 38 0 0 0 36 2v14c5 1 9 3 12 7l11-7zM30 54a14 14 0 1 1 0-28 14 14 0 0 1 0 28zm0-2a12 12 0 1 0 0-24 12 12 0 0 0 0 24zm0-2a10 10 0 1 1 0-20 10 10 0 0 1 0 20zm0-2a8 8 0 1 0 0-16 8 8 0 0 0 0 16zm77 45l-1-6 6-2 2 6 3-1 1-6h6l1 6 3 1 2-6 6 2-1 6 2 2 5-5 4 4-3 5 2 3 6-3 3 6-5 3 1 3h6l1 6-6 1v4l6 1-1 6h-6l-1 3 5 3-3 6-6-3-2 3 3 5-4 4-5-5a30 30 0 0 1-2 2l1 6-6 2-2-6-3 1-1 6h-6l-1-6a30 30 0 0 1-3-1l-2 6-6-2 1-6-2-2-5 5-4-4 3-5a33 33 0 0 1-2-3l-6 3-3-6 5-3a30 30 0 0 1-1-3h-6l-1-6 6-1a30 30 0 0 1 0-4l-6-1 1-6h6l1-3-5-3 3-6 6 3 2-3-3-5 4-4 5 5a30 30 0 0 1 2-2zm16-1l-1-6h-2l-1 6-6 1-3-5h-2l2 6a28 28 0 0 0-6 4l-4-5-2 2 4 5a28 28 0 0 0-4 5l-6-3-1 2 5 3a28 28 0 0 0-2 6h-6l-1 2 6 2a28 28 0 0 0 0 6l-6 2 1 2 6-1a28 28 0 0 0 2 7l-5 3 1 2 6-3a28 28 0 0 0 4 5l-4 5 2 2 4-5a28 28 0 0 0 6 4l-2 6h2l3-5 6 1 1 6h2l1-6 6-1 3 5h2l-2-6a28 28 0 0 0 6-4l4 5 2-2-4-5a28 28 0 0 0 4-5l6 3 1-2-5-3a28 28 0 0 0 2-6h6l1-2-6-2a28 28 0 0 0 0-6l6-2-1-2-6 1a28 28 0 0 0-2-7l5-3-1-2-6 3a28 28 0 0 0-4-5l4-5-2-2-4 5a28 28 0 0 0-6-4l2-6h-2l-3 5-6-1zm-2 36a8 8 0 1 1 0-16 8 8 0 0 1 0 16zm0-2a6 6 0 1 0 0-12 6 6 0 0 0 0 12zm0-18a5 5 0 1 1 0-10 5 5 0 0 1 0 10zm8 4a5 5 0 1 1 7-8 5 5 0 0 1-7 8zm4 8a5 5 0 1 1 10 0 5 5 0 0 1-10 0zm-4 8a5 5 0 1 1 8 7 5 5 0 0 1-8-7zm-8 4a5 5 0 1 1 0 10 5 5 0 0 1 0-10zm-8-4a5 5 0 1 1-7 8 5 5 0 0 1 7-8zm-4-8a5 5 0 1 1-10 0 5 5 0 0 1 10 0zm4-8a5 5 0 1 1-8-7 5 5 0 0 1 8 7zm8-6a3 3 0 1 0 0-6 3 3 0 0 0 0 6zm10 4a3 3 0 1 0 4-4 3 3 0 0 0-4 4zm4 10a3 3 0 1 0 6 0 3 3 0 0 0-6 0zm-4 10a3 3 0 1 0 4 4 3 3 0 0 0-4-4zm-10 4a3 3 0 1 0 0 6 3 3 0 0 0 0-6zm-10-4a3 3 0 1 0-4 4 3 3 0 0 0 4-4zm-4-10a3 3 0 1 0-6 0 3 3 0 0 0 6 0zm4-10a3 3 0 1 0-4-4 3 3 0 0 0 4 4zm130-7h2l2-3 2-4 3 1v8l2 1 3-3 3-3 3 1-1 4-1 4 2 2 3-3 3-2 3 2-2 4-2 3 2 2 3-1 4-2 3 3-3 3-3 3 1 3 4-1 4-1 2 4-4 2-3 2v3h8l1 4-4 2-4 1v2l4 1 4 2-1 4h-8v3l3 2 4 2-2 4-4-1-4-1-1 3 3 3 3 3-3 3-4-2-3-1a37 37 0 0 1-2 2l2 3 2 4-3 2-3-2-3-3a40 40 0 0 1-2 2l1 4 1 4-3 1-3-3-3-3-2 1v8l-3 1-2-4-2-3h-2l-1 4-1 4h-4l-1-4-1-4a38 38 0 0 1-2 0l-2 3-2 4-3-1v-8l-2-1-3 3-3 3-3-1 1-4 1-4-2-2-3 3-3 2-3-2 2-4 2-3-2-2-3 1-4 2-3-3 3-3 3-3-1-3-4 1-4 1-2-4 4-2 3-2v-3h-8l-1-4 4-2 4-1v-2l-4-1-4-2 1-4h8v-3l-3-2-4-2 2-4 4 1 4 1 1-3-3-3-3-3 3-3 4 2 3 1a37 37 0 0 1 2-2l-2-3-2-4 3-2 3 2 3 3 2-2-1-4-1-4 3-1 3 3 3 3 2-1v-8l3-1 2 4 2 3h2l1-4 1-4h4l1 4 1 4zm-15 4l-5 2-4-5-1-2-1 1 1 2 2 5a38 38 0 0 0-5 3l-4-4-2-1-1 1 1 2 4 5a38 38 0 0 0-4 4l-6-3-2-1v1l1 2 5 4a38 38 0 0 0-3 5l-6-2h-2v1l2 1 5 3a38 38 0 0 0-1 6h-9v1l2 1 6 1a39 39 0 0 0 0 6l-6 1-2 1v1h9l1 6-5 3-2 1v1h2l6-2a38 38 0 0 0 3 5l-5 4-1 2v1l2-1 6-3a38 38 0 0 0 4 4l-4 5-1 2 1 1 2-1 4-4a38 38 0 0 0 5 3l-2 5-1 2 1 1 1-2 4-5 5 2-1 6v3h1l1-2 3-6 5 1 1 6 1 2h1v-2l1-6a38 38 0 0 0 5-1l3 6 1 2h1v-3l-1-6 5-2 4 5 1 2 1-1-1-2-2-5a38 38 0 0 0 5-3l4 4 2 1 1-1-1-2-4-5a38 38 0 0 0 4-4l6 3 2 1v-1l-1-2-5-4 3-5 6 2h2v-1l-2-1-5-3a37 37 0 0 0 1-6h9v-1l-2-1-6-1v-6l6-1 2-1v-1h-9a37 37 0 0 0-1-6l5-3 2-1v-1h-2l-6 2a38 38 0 0 0-3-5l5-4 1-2v-1l-2 1-6 3a38 38 0 0 0-4-4l4-5 1-2-1-1-2 1-4 4a38 38 0 0 0-5-3l2-5 1-2-1-1-1 2-4 5-5-2 1-6v-3h-1l-1 2-3 6-5-1-1-6v-2h-1l-1 2-1 6-5 1-3-6-1-2h-1v3l1 6zm-6 5a35 35 0 0 1 16-4v6a29 29 0 0 0-13 3l-3-5zm3 1l1 2a31 31 0 0 1 10-3v-2a33 33 0 0 0-11 3zm-4 0l3 5a29 29 0 0 0-10 10l-5-3a35 35 0 0 1 12-12zm-1 3a33 33 0 0 0-8 8l2 1a31 31 0 0 1 7-7l-1-2zm-12 10l5 3a29 29 0 0 0-3 13h-6a35 35 0 0 1 4-16zm1 3a33 33 0 0 0-3 11h2a31 31 0 0 1 3-10l-2-1zm-5 15h6c0 4 1 9 3 13l-5 3a35 35 0 0 1-4-16zm2 2a33 33 0 0 0 3 11l2-1a31 31 0 0 1-3-10h-2zm3 15l5-3 10 10-3 5a35 35 0 0 1-12-12zm3 1a33 33 0 0 0 8 8l1-2a31 31 0 0 1-7-7l-2 1zm10 12l3-5a29 29 0 0 0 13 3v6a35 35 0 0 1-16-4zm3-1a33 33 0 0 0 11 3v-2a31 31 0 0 1-10-3l-1 2zm15 5v-6c4 0 9-1 13-3l3 5a35 35 0 0 1-16 4zm2-2a33 33 0 0 0 11-3l-1-2a31 31 0 0 1-10 3v2zm15-3l-3-5 10-10 5 3a35 35 0 0 1-12 12zm1-3a33 33 0 0 0 8-8l-2-1a31 31 0 0 1-7 7l1 2zm12-10l-5-3a29 29 0 0 0 3-13h6a35 35 0 0 1-4 16zm-1-3a33 33 0 0 0 3-11h-2a31 31 0 0 1-3 10l2 1zm5-15h-6a29 29 0 0 0-3-13l5-3a35 35 0 0 1 4 16zm-2-2a33 33 0 0 0-3-11l-2 1a31 31 0 0 1 3 10h2zm-3-15l-5 3a29 29 0 0 0-10-10l3-5a35 35 0 0 1 12 12zm-3-1a33 33 0 0 0-8-8l-1 2a31 31 0 0 1 7 7l2-1zm-26-16a35 35 0 0 1 16 4l-3 5a29 29 0 0 0-13-3v-6zm13 5a33 33 0 0 0-11-3v2a31 31 0 0 1 10 3l1-2zm-14 43a13 13 0 1 1 0-26 13 13 0 0 1 0 26zm0-2a11 11 0 1 0 0-22 11 11 0 0 0 0 22zM138 0h56v1l1 2 8-3 2 4-6 5 1 2h8l1 4-8 3 1 3 8 1v4l-8 1-1 3 8 3-1 4h-8l-1 2 6 5-2 4-8-3-1 2 5 7-3 3-7-5-2 1 3 8-4 2-5-6-2 1v8l-4 1-3-7h-3l-1 8h-4l-1-8h-3l-3 7-4-1v-8l-2-1-5 6-4-2 3-8a36 36 0 0 1-2-1l-7 5-3-3 5-7-1-2-8 3-2-4 6-5-1-2h-8l-1-4 8-3-1-3-8-1v-4l8-1 1-3-8-3 1-4h8l1-2-6-5 2-4 8 3 1-2V0zm2 0l1 1a34 34 0 0 0-4 5l-7-3h-1l7 5a34 34 0 0 0-2 6l-8-1h-1l8 4a34 34 0 0 0-1 5l-8 2 8 2 1 5-8 4h1l8-1a34 34 0 0 0 2 6l-7 5h1l7-3 4 5-5 6 1 1 6-5a34 34 0 0 0 5 4l-3 7v1l5-7 6 2-1 8v1l4-8 5 1 2 8 2-8 5-1 4 8v-1l-1-8a34 34 0 0 0 6-2l5 7v-1l-3-7 5-4 6 5 1-1-5-6a34 34 0 0 0 4-5l7 3h1l-7-5a34 34 0 0 0 2-6l8 1h1l-8-4 1-5 8-2-8-2-1-5 8-4h-1l-8 1a34 34 0 0 0-2-6l7-5h-1l-7 3-4-5 1-1h-52zm-3 27h14a15 15 0 0 0 12 12v14a29 29 0 0 1-26-26zm13-27h13v9a15 15 0 0 0-12 12h-14a29 29 0 0 1 13-21zm19 53V39a15 15 0 0 0 12-12h14a29 29 0 0 1-26 26zm13-53a29 29 0 0 1 13 21h-14a15 15 0 0 0-12-12V0h13zm-43 29a27 27 0 0 0 22 22V40a17 17 0 0 1-11-11h-11zm15-29a27 27 0 0 0-15 19h11a17 17 0 0 1 11-11V0h-7zm17 51a27 27 0 0 0 22-22h-11a17 17 0 0 1-11 11v11zm7-51h-7v8a17 17 0 0 1 11 11h11a27 27 0 0 0-15-19zm-12 34a10 10 0 1 1 0-20 10 10 0 0 1 0 20zm0-2a8 8 0 1 0 0-16 8 8 0 0 0 0 16zm-40 176l-10-8 6-10 12 5a24 24 0 0 1 8-5l2-13h12l2 13a24 24 0 0 1 8 5l12-5 6 10-10 8a24 24 0 0 1 0 10l10 8-6 10-12-5a24 24 0 0 1-8 5l-2 13h-12l-2-13a24 24 0 0 1-8-5l-12 5-6-10 10-8a24 24 0 0 1 0-10zm30-16l-2-13h-8l-2 13-10 5-11-5-5 8 11 7v12l-11 7 5 8 11-5a22 22 0 0 0 10 5l2 13h8l2-13 10-5 11 5 5-8-11-7v-12l11-7-5-8-11 5a22 22 0 0 0-10-5zm-6 33a12 12 0 1 1 0-24 12 12 0 0 1 0 24zm0-2a10 10 0 1 0 0-20 10 10 0 0 0 0 20zm4 68h4v2l-3 2v2l4 1v2l-4 1v2l3 2v2h-4l-1 2 3 3-1 2-4-1a24 24 0 0 1-2 1l3 4-2 2-4-3-1 2 1 4-2 1-3-3-2 1v4h-2l-2-3h-2l-1 4h-2l-1-4h-2l-2 3h-2v-4l-2-1-3 3-2-1 1-4a24 24 0 0 1-1-2l-4 3-2-2 3-4-2-1-4 1-1-2 3-3-1-2h-4v-2l3-2v-2l-4-1v-2l4-1v-2l-3-2v-2h4l1-2-3-3 1-2 4 1 2-1-3-4 2-2 4 3 1-2-1-4 2-1 3 3 2-1v-4h2l2 3h2l1-4h2l1 4h2l2-3h2v4l2 1 3-3 2 1-1 4 1 2 4-3 2 2-3 4 2 1 4-1 1 2-3 3 1 2zm-45 8a22 22 0 1 0 44 0 22 22 0 0 0-44 0zm27-11l-3 5a6 6 0 0 0-4 0l-3-5a12 12 0 0 1 10 0zm2 1a12 12 0 0 1 5 9h-6a6 6 0 0 0-2-4l3-5zm-14 0l3 5a6 6 0 0 0-2 4h-6a12 12 0 0 1 5-9zm-5 11h6a6 6 0 0 0 2 4l-3 5a12 12 0 0 1-5-9zm7 10l3-5a6 6 0 0 0 4 0l3 5a12 12 0 0 1-10 0zm12-1l-3-5a6 6 0 0 0 2-4h6a12 12 0 0 1-5 9zm-5-20a10 10 0 0 0-4 0l1 2h2l1-2zm5 3l-1 2 1 2h3a10 10 0 0 0-3-4zm-14 0a10 10 0 0 0-3 4h3l1-2-1-2zm-3 10a10 10 0 0 0 3 4l1-2a8 8 0 0 1-1-2h-3zm8 7h4l-1-2h-2l-1 2zm9-3a10 10 0 0 0 3-4h-3l-1 2 1 2zm-11-7a4 4 0 1 1 8 0 4 4 0 0 1-8 0zm2 0a2 2 0 1 0 4 0 2 2 0 0 0-4 0zm15 0a4 4 0 1 1 8 0 4 4 0 0 1-8 0zm-6 11a4 4 0 1 1 4 7 4 4 0 0 1-4-7zm-13 0a4 4 0 1 1-4 7 4 4 0 0 1 4-7zm-7-11a4 4 0 1 1-8 0 4 4 0 0 1 8 0zm7-11a4 4 0 1 1-4-7 4 4 0 0 1 4 7zm13 0a4 4 0 1 1 4-7 4 4 0 0 1-4 7zm8 11a2 2 0 1 0 4 0 2 2 0 0 0-4 0zm-7 13a2 2 0 1 0 1 4 2 2 0 0 0-2-4zm-15 0a2 2 0 1 0-3 3 2 2 0 0 0 2-3zm-8-13a2 2 0 1 0-4 0 2 2 0 0 0 4 0zm8-13a2 2 0 1 0-2-4 2 2 0 0 0 2 4zm15 0a2 2 0 1 0 2-3 2 2 0 0 0-2 3zm103-62v-8l5-1 4 7 7-1 1-8h6l1 8 7 1 4-7 6 1-1 8 6 3 5-6 6 3-3 7a60 60 0 0 1 5 5l7-5 4 4-5 7a60 60 0 0 1 5 5l7-3 3 6-6 5a60 60 0 0 1 3 6h8l1 5-7 4 1 7 8 1v6l-8 1a60 60 0 0 1-1 7l7 4-1 6-8-1a60 60 0 0 1-3 6l6 5-3 6-7-3a60 60 0 0 1-5 5l5 7-4 4-7-5a60 60 0 0 1-5 5l3 7-6 3-5-6a60 60 0 0 1-6 3v8l-5 1-4-7-7 1-1 8h-6l-1-8a60 60 0 0 1-7-1l-4 7-5-1v-8a60 60 0 0 1-6-3l-5 6-6-3 3-7a60 60 0 0 1-5-5l-7 5-4-4 5-7a60 60 0 0 1-5-5l-7 3-3-6 6-5a60 60 0 0 1-3-6h-8l-1-5 7-4-1-7-8-1v-6l8-1 1-7-7-4 1-6 8 1 3-6-6-5 3-6 7 3a60 60 0 0 1 5-5l-5-7 4-4 7 5a60 60 0 0 1 5-5l-3-7 6-3 5 6a60 60 0 0 1 6-3zm2 2l-9 3-5-6-2 2 3 7a58 58 0 0 0-8 6l-7-5-2 2 5 7a58 58 0 0 0-6 8l-7-3-2 2 6 5a58 58 0 0 0-3 9h-8l-1 2 7 4a58 58 0 0 0-1 9l-8 2v2l8 2 1 9-7 4 1 2h8l3 9-6 5 2 2 7-3a58 58 0 0 0 6 8l-5 7 2 2 7-5a60 60 0 0 0 8 6l-3 7 2 2 5-6a57 57 0 0 0 9 3v8l2 1 4-7 9 1 2 8h2l2-8 9-1 4 7 2-1v-8l9-3 5 6 2-2-3-7a58 58 0 0 0 8-6l7 5 2-2-5-7a60 60 0 0 0 6-8l7 3 2-2-6-5a57 57 0 0 0 3-9h8l1-2-7-4a58 58 0 0 0 1-9l8-2v-2l-8-2a58 58 0 0 0-1-9l7-4-1-2h-8l-3-9 6-5-2-2-7 3a58 58 0 0 0-6-8l5-7-2-2-7 5a58 58 0 0 0-8-6l3-7-2-2-5 6a58 58 0 0 0-9-3v-8l-2-1-4 7a58 58 0 0 0-9-1l-2-8h-2l-2 8-9 1-4-7-2 1v8zm5 50a14 14 0 0 0 0 10l-34 20a53 53 0 0 1-6-25c0-9 2-17 6-25l34 20zm2-4l-34-19a53 53 0 0 1 43-25v39a14 14 0 0 0-9 5zm0 18a14 14 0 0 0 9 5v39a53 53 0 0 1-43-25l34-19zm13 5a14 14 0 0 0 9-5l34 19a53 53 0 0 1-43 25v-39zm11-9a14 14 0 0 0 0-10l34-20a53 53 0 0 1 6 25c0 9-2 17-6 25l-34-20zm-2-14a14 14 0 0 0-9-5v-39a53 53 0 0 1 43 25l-34 19zm-57-13a51 51 0 0 0-5 22 51 51 0 0 0 5 22l31-18v-8l-31-18zm4-7l31 18a16 16 0 0 1 7-5v-35a51 51 0 0 0-38 22zm0 58a51 51 0 0 0 38 22v-35a16 16 0 0 1-7-5l-31 18zm46 22a51 51 0 0 0 38-22l-31-18a16 16 0 0 1-7 5v35zm42-29a51 51 0 0 0 5-22 51 51 0 0 0-5-22l-31 18v8l31 18zm-4-51a51 51 0 0 0-38-22v36c3 0 5 2 7 4l31-18zm-42 38a9 9 0 1 1 0-18 9 9 0 0 1 0 18zm0-2a7 7 0 1 0 0-14 7 7 0 0 0 0 14zM0 243h3l5 2a38 38 0 0 1 2-3l-3-4-1-5 3-3 4 2 4 4a38 38 0 0 1 4-2l-1-5v-5l3-2 4 4 2 5 5-1v-5l2-5h4l2 5v5l5 1 2-5 4-4 3 2v5l-1 5 4 2 4-4 4-2 3 3-1 5-3 4a38 38 0 0 1 2 3l5-2 6-1 2 4-4 4-4 3 1 4h6l5 1 1 4-5 2-5 2a39 39 0 0 1 0 4l5 2 5 2-1 4-5 1h-6a36 36 0 0 1-1 4l4 3 4 4-2 4-6-1-5-2a38 38 0 0 1-2 3l3 4 1 5-3 3-4-2-4-4a38 38 0 0 1-4 2l1 5v5l-3 2-4-4-2-5-5 1v5l-2 5h-4l-2-5v-5a38 38 0 0 1-5-1l-2 5-4 4-3-2v-5l1-5-4-2-4 4-4 2-3-3 1-5 3-4a38 38 0 0 1-2-3l-5 2H0v-8l3-2a38 38 0 0 1-1-4H0v-9a39 39 0 0 1 0-4v-9h2l1-4-3-2v-8zm0 2v3l6 4a36 36 0 0 0-3 7H0v5h2a36 36 0 0 0 0 8H0v5h3a35 35 0 0 0 3 7l-6 4v3h2l6-3 5 6-4 6-1 3 1 1 3-2 5-5 6 4-2 7 1 3h1l2-2 3-6a36 36 0 0 0 7 1l1 7 1 3h2l1-3 1-7a36 36 0 0 0 7-1l3 6 2 2h1l1-3-2-7a36 36 0 0 0 6-4l5 5 3 2 1-1-1-3-4-6a36 36 0 0 0 5-6l6 3 3 1 1-2-2-2-6-4 3-7h10v-2l-2-2-7-1v-8l7-1 2-2v-2H73a36 36 0 0 0-3-7l6-4 2-2-1-2-3 1-6 3-5-6 4-6 1-3-1-1-3 2-5 5-6-4 2-7-1-3h-1l-2 2-3 6a36 36 0 0 0-7-1l-1-7-1-3h-2l-1 3-1 7-7 1-3-6-2-2h-1l-1 3 2 7a36 36 0 0 0-6 4l-5-5-3-2-1 1 1 3 4 6a36 36 0 0 0-5 6l-6-3H0zm38 27a4 4 0 1 1 0-8 4 4 0 0 1 0 8zm0-2a2 2 0 1 0 0-4 2 2 0 0 0 0 4zm0-26a4 4 0 1 1 0-8 4 4 0 0 1 0 8zm24 24a4 4 0 1 1 8 0 4 4 0 0 1-8 0zm-24 24a4 4 0 1 1 0 8 4 4 0 0 1 0-8zm-24-24a4 4 0 1 1-8 0 4 4 0 0 1 8 0zm24-26a2 2 0 1 0 0-4 2 2 0 0 0 0 4zm26 26a2 2 0 1 0 4 0 2 2 0 0 0-4 0zm-26 26a2 2 0 1 0 0 4 2 2 0 0 0 0-4zm-26-26a2 2 0 1 0-4 0 2 2 0 0 0 4 0zm3 23a12 12 0 1 1 17-18 12 12 0 0 1-17 18zm0-46a12 12 0 1 1 18 17 12 12 0 0 1-18-17zm46 0a12 12 0 1 1-17 18 12 12 0 0 1 17-18zm0 46a12 12 0 1 1-18-17 12 12 0 0 1 18 17zm-16-30a10 10 0 1 0 14-14 10 10 0 0 0-14 14zm0 14a10 10 0 1 0 14 14 10 10 0 0 0-14-14zm-14 0a10 10 0 1 0-14 14 10 10 0 0 0 14-14zm0-14a10 10 0 1 0-14-14 10 10 0 0 0 14 14zM262 16v-5h2l2 4 3-1 1-4h2l1 4 3 1 2-4h2v5a27 27 0 0 1 3 1l3-3 2 1-1 4 2 2 4-2 1 1-2 4 2 2 4-1 1 2-3 3 1 3h5v2l-3 2v3l4 1v2l-4 1a27 27 0 0 1 0 3l3 2v2h-5a28 28 0 0 1-1 3l3 3-1 2-4-1-2 2 2 4-1 1-4-2-2 2 1 4-2 1-3-3a27 27 0 0 1-3 1v5h-2l-2-3h-3l-1 4h-2l-1-4a27 27 0 0 1-3 0l-2 3h-2v-5a28 28 0 0 1-3-1l-3 3-2-1 1-4-2-2-4 2-1-1 2-4-2-2-4 1-1-2 3-3a27 27 0 0 1-1-3h-5v-2l3-2v-3l-4-1v-2l4-1v-3l-3-2v-2h5a27 27 0 0 1 1-3l-3-3 1-2 4 1 2-2-2-4 1-1 4 2 2-2-1-4 2-1 3 3a27 27 0 0 1 3-1zm9 52a26 26 0 1 0 0-52 26 26 0 0 0 0 52zm0-9a17 17 0 1 1 0-34 17 17 0 0 1 0 34zm0-2a15 15 0 1 0 0-30 15 15 0 0 0 0 30zm0-8a7 7 0 1 1 0-14 7 7 0 0 1 0 14zm0-2a5 5 0 1 0 0-10 5 5 0 0 0 0 10zm0-14a2 2 0 1 1 0-4 2 2 0 0 1 0 4zm9 9a2 2 0 1 1 4 0 2 2 0 0 1-4 0zm-9 9a2 2 0 1 1 0 4 2 2 0 0 1 0-4zm-9-9a2 2 0 1 1-4 0 2 2 0 0 1 4 0zm48 54l-2-4 2-1 3 3 1-1 1-4h2l1 4 1 1 3-3 2 1-2 4 1 1 4-1 1 2-4 2v2l4 2-1 2-4-1-1 1 2 4-2 1-3-3-1 1-1 4h-2l-1-4-1-1-3 3-2-1 2-4a8 8 0 0 1-1-1l-4 1-1-2 4-2a8 8 0 0 1 0-2l-4-2 1-2 4 1 1-1zm6 10a5 5 0 1 0 0-10 5 5 0 0 0 0 10zM76 179l-1-2 2-1 1 2a10 10 0 0 1 2-1l1-2h2l1 2 2 1 1-2 2 1-1 2 2 2 2-1 1 2-2 1 1 2 2 1v2l-2 1a10 10 0 0 1-1 2l2 1-1 2-2-1a10 10 0 0 1-2 2l1 2-2 1-1-2-2 1-1 2h-2l-1-2-2-1-1 2-2-1 1-2a10 10 0 0 1-2-2l-2 1-1-2 2-1a10 10 0 0 1-1-2l-2-1v-2l2-1 1-2-2-1 1-2 2 1 2-2zm2 1a8 8 0 0 0-3 3 8 8 0 0 0 0 8 8 8 0 0 0 3 3 8 8 0 0 0 8 0 8 8 0 0 0 3-3 8 8 0 0 0 0-8 8 8 0 0 0-3-3 8 8 0 0 0-8 0zm4 13a6 6 0 1 1 0-12 6 6 0 0 1 0 12zm0-2a4 4 0 1 0 0-8 4 4 0 0 0 0 8zm278 3l-4 6-7-4 3-8a32 32 0 0 1-3-2l-8 4-5-6 6-6-2-4-8 1-2-8 8-3a33 33 0 0 1 0-4l-8-3 2-8 8 1a32 32 0 0 1 2-4l-6-6 5-6 8 4 3-2-3-8 7-4 4 6v64zm0-3v-58l-4-6-5 2 3 8a30 30 0 0 0-5 4l-7-4-3 3 6 6a30 30 0 0 0-3 6l-9-1-1 5 8 3a30 30 0 0 0 0 6l-8 3 1 5 9-1a30 30 0 0 0 3 6l-6 6 3 4 7-5a30 30 0 0 0 5 4l-3 8 5 2 4-6zm0-52v6l-4-4a25 25 0 0 1 4-2zm0 23l-14 6c-3-9 1-19 8-25l6 10v9zm0 23a25 25 0 0 1-13-14l13-3v17zm0-44v1-1zm0 19v-3l-6-11a23 23 0 0 0-7 20l13-6zm0 23v-13l-10 3a23 23 0 0 0 10 10zM0 130l1 1a32 32 0 0 1 4-1l1-8h8l1 8 4 1 5-7 7 4-3 8 3 2 8-4 5 6-6 6 2 4 8-1 2 8-8 3v4l8 3-2 8-8-1a34 34 0 0 1-2 4l6 6-5 6-8-4-3 2 3 8-7 4-5-7-4 1-1 8H6l-1-8a32 32 0 0 1-4-1l-1 1v-64zm0 3v58-1l7 2 1 8h4l1-8 7-2 4 7 5-2-3-8a30 30 0 0 0 5-4l7 4 3-3-6-6 3-6 9 1 1-5-8-3a31 31 0 0 0 0-6l8-3-1-5-9 1a30 30 0 0 0-3-6l6-6-3-4-7 5a30 30 0 0 0-5-4l3-8-5-2-4 7a30 30 0 0 0-7-2l-1-8H8l-1 8-7 2v-1zm34 35l-16-7a8 8 0 0 0-1-3l9-15a25 25 0 0 1 8 25zm-1 3a25 25 0 0 1-22 16l3-18a8 8 0 0 0 2-1l17 3zM0 139a25 25 0 0 1 10-2c5 0 10 1 14 4l-13 13a8 8 0 0 0-2 0l-9-9v-6zm0 23v-9l3 5-1 3-2 1zm0 23v-17h4l2 1 3 18-9-2zm10-29a6 6 0 1 1 0 12 6 6 0 0 1 0-12zm0 2a4 4 0 1 0 0 8 4 4 0 0 0 0-8zM0 141v1l9 10h2l9-11a23 23 0 0 0-10-2l-10 2zm0 19v-1l1-1-1-1v3zm0 23l6 2-1-15a12 12 0 0 1-1 0H0v13zm14 2a23 23 0 0 0 16-12l-14-3h-1l-1 15zm19-19a23 23 0 0 0-7-20l-7 12 1 1 13 7zm105 194l-5-6 3-3 7 5 2-1-3-8 4-2 5 6 2-1v-8l4-1 3 8 3-1 1-8h4l1 8h3l3-7 4 1v8l2 1 5-6 4 2-3 8 2 1 7-5 3 3-5 6h-56zm2 0h52l4-5-1-1-6 5a34 34 0 0 0-5-4l3-7v-1l-5 7a34 34 0 0 0-6-2l1-8v-1l-4 8a34 34 0 0 0-5-1l-2-8-2 8-5 1-4-8v1l1 8a34 34 0 0 0-6 2l-5-7v1l3 7-5 4-6-5-1 1 4 5zm10 0a29 29 0 0 1 13-5v5h-13zm32 0h-13v-5c5 1 9 2 13 5zm-28 0h7v-3a27 27 0 0 0-7 3zm24 0a27 27 0 0 0-7-3v3h7zM359 0h-1l1 3a48 48 0 0 0-6 6l-9-4-2 2 7 8a48 48 0 0 0-3 7l-11-1-1 2 9 5a48 48 0 0 0-1 9l-10 2v2l10 2 1 9-9 5 1 2 11-1 3 7-7 8 2 2 9-4a48 48 0 0 0 6 6l-4 9 2 2 3-3v3l-3 2-5-3 5-10a50 50 0 0 1-4-4l-10 5-3-5 7-8a50 50 0 0 1-3-5l-10 1-2-5 9-5a50 50 0 0 1-1-6l-10-2v-6l10-2 1-6-9-5 2-5 10 1 3-5-7-8 3-5 10 5a50 50 0 0 1 4-4l-2-3h4zm1 53l-6 3a40 40 0 0 1-4-16 40 40 0 0 1 4-16l6 3v26zm0-39v4l-2-1 2-3zm0 52l-2-3 2-1v4zm0-16V30l-5-4a38 38 0 0 0 0 28l5-4zM62 360h3l3-7-5-3-8 7a50 50 0 0 0-5-3l1-10-5-2-5 9a50 50 0 0 0-6-1l-2-10h-6l-2 10-6 1-5-9-5 2 1 10-5 3-5-5v5-2l5 4a48 48 0 0 1 7-3l-1-11 2-1 5 9a48 48 0 0 1 9-1l2-10h2l2 10 9 1 5-9 2 1-1 11 7 3 8-7 2 2-3 6zm298-115l-1-1-1 2 2 2v-3zm0 14h-7v2l2 2 5 1v-5zm0 13l-5 1-2 2v2h7v-5zm0 16l-2 2 1 2 1-1v-3zm0 5l-3 1-2-4 4-4 1-1v8zm0-14h-4l-5-1-1-4 5-2 5-2v9zm0-13l-5-2-5-2 1-4 5-1h4v9zm0-15l-1-1-4-4 2-4 3 1v8zm0 101v8h-5l-3-7 5-3 3 2zm0 3l-3-3-2 2 3 6h2v-5z" />
</svg>
