<svg width="180" height="180" xmlns="http://www.w3.org/2000/svg"><path d="M81 88H68l20 19-7-19zm2 0h14l-7 20-7-20zm16 0h13l-20 19 7-19zm-33-2l8-8h32l1 1 7 7 1 1-24 25h-1L65 87l1-1zm2 0l6-6 6 6H68zm16 0l6-6 6 6H84zm16 0l6-6 6 6h-12zm-8-6h12l-6 6-6-6zm-10 6l6-6H76l6 6zM17 0L1 17H0V0h17zM4 0L0 13V0h4zm11 0L2 12 6 0h9zm165 17L163 0h17v17zM165 0l13 12-4-12h-9zm15 13l-4-13h4v13zM0 163h16l1 1 7 7 1 1-8 8H0v-17zm0 10h7l-3 7H0v-7zm15 7l7-7H9l-3 7h9zM0 165l6 6H0v-6zm10 6l6-6 6 6H10zm-8-6h12l-6 6-6-6zm178-2h-16l-8 8-1 1 8 8h17v-17zm-15 17l-7-7h13l3 7h-9zm15-7h-7l3 7h4v-7zm-22-2l6-6 6 6h-12zm22-6l-6 6h6v-6zm-8 6l6-6h-12l6 6zM153 26l1 1-34 34-1-1 34-34zm1 127l-1 1-34-34 1-1 34 34zm-127 1l-1-1 34-34 1 1-34 34zM26 27l1-1 34 34-1 1-34-34zM0 85a4 4 0 1 1 0 8v-8zm180 0a4 4 0 1 0 0 8v-8zM94 0a4 4 0 1 1-8 0h8zm0 180a4 4 0 1 0-8 0h8z" fill="#BA7" fill-opacity="0.2" fill-rule="evenodd"/></svg>